<?xml version="1.0" encoding="utf-8"?>
<!-- Generator: Adobe Illustrator 16.0.0, SVG Export Plug-In . SVG Version: 6.00 Build 0)  -->
<!DOCTYPE svg PUBLIC "-//W3C//DTD SVG 1.1//EN" "http://www.w3.org/Graphics/SVG/1.1/DTD/svg11.dtd">
<svg version="1.1" id="Ebene_1" xmlns="http://www.w3.org/2000/svg" xmlns:xlink="http://www.w3.org/1999/xlink" x="0px" y="0px"
	 width="141.73px" height="141.73px" viewBox="0 0 141.73 141.73" enable-background="new 0 0 141.73 141.73" xml:space="preserve">
<g>
	<circle fill="#FFFFFF" stroke="#FFFFFF" stroke-miterlimit="10" cx="70.865" cy="70.865" r="52"/>
	<g>
		<g>
			<path fill="#020303" d="M96.658,59.776c0-4.548-3.451-8.288-7.877-8.747c-1.242-3.35-4.457-5.743-8.24-5.743
				c-1.656,0-3.199,0.466-4.521,1.262c-1.504-2.692-4.377-4.516-7.681-4.516c-4.38,0-8.001,3.206-8.673,7.396
				c-0.358-0.043-0.719-0.074-1.088-0.074c-4.857,0-8.795,3.938-8.795,8.796c0,0.238,0.018,0.471,0.036,0.705
				c-2.463,1.559-4.103,4.299-4.103,7.43c0,2.768,1.28,5.232,3.278,6.844c-0.008,0.159-0.024,0.316-0.024,0.477
				c0,4.857,3.938,8.796,8.796,8.796c1.456,0,2.825-0.359,4.035-0.985c1.675,1.204,4.074,2.709,5.236,2.409
				c0,0,0.432,6.694,0.339,8.394c-0.178,3.234-1.148,6.835-1.831,9.749h10.576c0,0-1.56-6.496-1.627-8.665
				c-0.068-2.169,0.678-6.162,0.678-6.162l3.668-3.795c1.412,0.965,3.118,1.514,4.958,1.514c4.548,0,8.288-3.459,8.747-7.886
				c3.35-1.242,5.742-4.466,5.742-8.249c0-2.233-0.839-4.266-2.211-5.818C96.445,61.934,96.658,60.881,96.658,59.776z
				 M63.831,79.965c0.705-0.674,1.297-1.461,1.748-2.334l1.727,3.618C67.306,81.25,66.366,81.664,63.831,79.965z M70.288,82.198
				c-0.894,0.162-2.416-2.589-3.496-4.826c1.198,0.61,2.549,0.962,3.987,0.962c0.369,0,0.731-0.029,1.089-0.074
				C71.59,80.05,71.101,82.049,70.288,82.198z M74.084,83.959c-2.066,0.574-0.828-3.707-0.236-6.186
				c0.429-0.16,0.844-0.347,1.238-0.569c0.237,1.807,1.021,3.437,2.185,4.725C76.264,82.824,75.104,83.676,74.084,83.959z"/>
		</g>
	</g>
</g>
</svg>
