<?xml version="1.0" encoding="utf-8"?>
<!-- Generator: Adobe Illustrator 16.0.0, SVG Export Plug-In . SVG Version: 6.00 Build 0)  -->
<!DOCTYPE svg PUBLIC "-//W3C//DTD SVG 1.1//EN" "http://www.w3.org/Graphics/SVG/1.1/DTD/svg11.dtd">
<svg version="1.1" id="Ebene_1" xmlns="http://www.w3.org/2000/svg" xmlns:xlink="http://www.w3.org/1999/xlink" x="0px" y="0px"
	 width="141.73px" height="141.73px" viewBox="0 0 141.73 141.73" enable-background="new 0 0 141.73 141.73" xml:space="preserve">
<g>
	<circle fill="#FFFFFF" stroke="#FFFFFF" stroke-miterlimit="10" cx="70.865" cy="70.865" r="52"/>
	<g>
		<path fill="#010202" d="M101.365,60.771c0-8.022-6.467-14.524-20.608-14.524c-10.916,0-20.211,3.882-23.893,9.34
			c-2.6,0.034-5.191,1.032-7.177,3.018c-3.371,3.373-3.886,8.477-1.629,12.427l-8.796,11.05c-0.319,0.398-0.332,0.979,0,1.396
			c0.385,0.484,1.089,0.563,1.574,0.178l11.051-8.795c3.953,2.262,9.057,1.745,12.428-1.629c0.305-0.305,0.541-0.647,0.8-0.978
			c3.271,1.438,7.167,2.43,11.424,2.829l-1.644,16.852l-2.554-1.393c-0.5-0.273-1.131-0.09-1.402,0.412
			c-0.273,0.502-0.087,1.129,0.414,1.402l2.48,1.352l-2.662,2.299c-0.432,0.373-0.479,1.025-0.108,1.457
			c0.206,0.237,0.495,0.358,0.784,0.358c0.24,0,0.48-0.082,0.676-0.251l3.678-3.177l4.408-2.005c0.519-0.236,0.75-0.848,0.513-1.368
			c-0.237-0.518-0.845-0.749-1.368-0.513l-1.68,0.764l1.561-16.007c1.457,0.097,4.41-0.066,5.895-0.246l1.643,16.847l-2.428-1.324
			c-0.502-0.273-1.129-0.09-1.402,0.412s-0.088,1.129,0.412,1.402l2.481,1.352l-2.663,2.299c-0.432,0.373-0.479,1.025-0.106,1.457
			c0.206,0.237,0.495,0.358,0.783,0.358c0.24,0,0.479-0.082,0.677-0.251l3.681-3.181l4.247-2.008
			c0.515-0.243,0.736-0.859,0.492-1.376c-0.246-0.517-0.859-0.734-1.375-0.493l-1.736,0.821L88.588,74.48
			C97.294,72.506,101.365,67.122,101.365,60.771z"/>
		<g>
		</g>
		<g>
		</g>
		<g>
		</g>
		<g>
		</g>
		<g>
		</g>
		<g>
		</g>
		<g>
		</g>
		<g>
		</g>
		<g>
		</g>
		<g>
		</g>
		<g>
		</g>
		<g>
		</g>
		<g>
		</g>
		<g>
		</g>
		<g>
		</g>
	</g>
</g>
</svg>
