<?xml version="1.0" encoding="utf-8"?>
<!-- Generator: Adobe Illustrator 16.0.0, SVG Export Plug-In . SVG Version: 6.00 Build 0)  -->
<!DOCTYPE svg PUBLIC "-//W3C//DTD SVG 1.1//EN" "http://www.w3.org/Graphics/SVG/1.1/DTD/svg11.dtd">
<svg version="1.1" id="Ebene_1" xmlns="http://www.w3.org/2000/svg" xmlns:xlink="http://www.w3.org/1999/xlink" x="0px" y="0px"
	 width="141.73px" height="141.73px" viewBox="0 0 141.73 141.73" enable-background="new 0 0 141.73 141.73" xml:space="preserve">
<circle fill="#FFFFFF" stroke="#FFFFFF" stroke-miterlimit="10" cx="70.865" cy="70.865" r="52"/>
<g>
	<g>
		<path fill="#010202" d="M54.469,92.834h32.792V58.782h-7.31v-3.041c0-2.672-2.173-4.845-4.844-4.845h-8.485
			c-2.672,0-4.844,2.173-4.844,4.845v3.041h-7.31V92.834L54.469,92.834z M77.426,67.079c2.287,0.68,3.502,1.994,3.097,3.354
			c-0.403,1.357-2.14,1.796-4.425,1.116s-3.5-1.994-3.097-3.352C73.406,66.838,75.143,66.399,77.426,67.079z M64.466,55.741
			c0-1.189,0.967-2.157,2.156-2.157h8.486c1.188,0,2.155,0.968,2.155,2.157v3.041H64.466V55.741z M60.575,72.306l3.749-2.084
			c0.312-0.172,0.679-0.213,1.021-0.117c0.343,0.1,0.633,0.33,0.805,0.641l2.083,3.747c0.36,0.649,0.126,1.469-0.522,1.828
			l-3.749,2.081c-0.201,0.114-0.426,0.171-0.652,0.171c-0.124,0-0.249-0.019-0.369-0.053c-0.343-0.098-0.633-0.327-0.805-0.64
			l-2.082-3.749C59.692,73.484,59.926,72.665,60.575,72.306z M96.499,62.245v27.124c0,1.911-1.554,3.465-3.463,3.465h-3.087V58.782
			h3.087C94.945,58.782,96.499,60.334,96.499,62.245z M51.781,92.834h-3.087c-1.91,0-3.463-1.554-3.463-3.463V62.245
			c0-1.911,1.553-3.463,3.463-3.463h3.087V92.834L51.781,92.834z M74.721,80.361l2.209,0.732c0.184,0.061,0.335,0.19,0.423,0.365
			c0.087,0.173,0.102,0.373,0.041,0.556l-0.731,2.21c-0.126,0.381-0.539,0.59-0.922,0.464l-2.207-0.732
			c-0.121-0.038-0.227-0.107-0.31-0.196c-0.046-0.051-0.083-0.107-0.114-0.169c-0.088-0.172-0.104-0.371-0.041-0.556l0.731-2.209
			C73.925,80.444,74.338,80.237,74.721,80.361z"/>
	</g>
</g>
<g>
</g>
<g>
</g>
<g>
</g>
<g>
</g>
<g>
</g>
<g>
</g>
<g>
</g>
<g>
</g>
<g>
</g>
<g>
</g>
<g>
</g>
<g>
</g>
<g>
</g>
<g>
</g>
<g>
</g>
</svg>
