<?xml version="1.0" encoding="utf-8"?>
<!-- Generator: Adobe Illustrator 16.0.0, SVG Export Plug-In . SVG Version: 6.00 Build 0)  -->
<!DOCTYPE svg PUBLIC "-//W3C//DTD SVG 1.1//EN" "http://www.w3.org/Graphics/SVG/1.1/DTD/svg11.dtd">
<svg version="1.1" id="Ebene_1" xmlns="http://www.w3.org/2000/svg" xmlns:xlink="http://www.w3.org/1999/xlink" x="0px" y="0px"
	 width="141.73px" height="141.73px" viewBox="0 0 141.73 141.73" enable-background="new 0 0 141.73 141.73" xml:space="preserve">
<g>
	<circle fill="#FFFFFF" stroke="#FFFFFF" stroke-miterlimit="10" cx="70.865" cy="70.865" r="52"/>
	<g>
		<path fill="#010202" d="M101.965,49.828c-4.818,1.965-9.99,2.978-15.215,2.978H55.722c-5.225,0-10.397-1.013-15.216-2.978l0,0l0,0
			c1.709,4.454,5.47,7.749,10.009,9.031v3.794h3.244v7.1h-3.244v4.352h3.244v22.046h4.814V74.105h25.326v22.046h4.814V74.105h3.244
			v-4.352h-3.244v-7.1h3.244v-3.794C96.494,57.577,100.256,54.282,101.965,49.828L101.965,49.828L101.965,49.828z M58.572,62.653
			h10.101l-0.601,7.1h-9.5V62.653z M83.898,69.753h-9.5l-0.6-7.1h10.1V69.753z"/>
		<g>
		</g>
		<g>
		</g>
		<g>
		</g>
		<g>
		</g>
		<g>
		</g>
		<g>
		</g>
		<g>
		</g>
		<g>
		</g>
		<g>
		</g>
		<g>
		</g>
		<g>
		</g>
		<g>
		</g>
		<g>
		</g>
		<g>
		</g>
		<g>
		</g>
	</g>
</g>
</svg>
