<?xml version="1.0" encoding="utf-8"?>
<!-- Generator: Adobe Illustrator 16.0.0, SVG Export Plug-In . SVG Version: 6.00 Build 0)  -->
<!DOCTYPE svg PUBLIC "-//W3C//DTD SVG 1.1//EN" "http://www.w3.org/Graphics/SVG/1.1/DTD/svg11.dtd">
<svg version="1.1" id="Ebene_1" xmlns="http://www.w3.org/2000/svg" xmlns:xlink="http://www.w3.org/1999/xlink" x="0px" y="0px"
	 width="141.73px" height="141.73px" viewBox="0 0 141.73 141.73" enable-background="new 0 0 141.73 141.73" xml:space="preserve">
<g>
	<circle fill="#FFFFFF" stroke="#FFFFFF" stroke-miterlimit="10" cx="70.865" cy="70.865" r="52"/>
	<g>
		<g>
			<g>
				<path fill="#010202" d="M35.895,79.487c0.795,0.513,1.519,1.134,2.301,1.669c0.738,0.504,1.519,0.863,2.447,0.434
					c1.115-0.514,2.256-0.974,3.364-1.502c1.515-0.722,3.022-1.458,4.702-1.713c1.52-0.229,2.972,0.032,4.343,0.721
					c0.672,0.336,0.861,1.65,0.33,2.293c-0.439,0.531-0.998,0.859-1.714,0.861c-0.307,0-0.615,0.006-0.922,0.024
					c-0.959,0.057-1.508,0.535-1.745,1.547h2.252c-0.514,0.525-1.166,0.781-1.092,1.592c0.839-0.144,1.648-0.282,2.5-0.427
					c-0.005,0.119-0.025,0.219-0.012,0.313c0.034,0.218,0.036,0.588,0.138,0.619c0.201,0.064,0.529,0.018,0.685-0.12
					c0.461-0.402,1.013-0.388,1.551-0.461c0.866-0.117,1.75-0.1,2.564-0.506c0.562-0.282,0.995-0.67,1.222-1.252
					c0.12-0.307,0.281-0.377,0.614-0.392c0.41-0.018,0.832-0.16,1.213-0.33c0.394-0.175,0.601-0.041,0.774,0.284
					c0.029,0.054,0.06,0.108,0.08,0.166c0.446,1.266,0.414,1.337-0.889,1.597c-1.103,0.222-2.06,0.702-2.851,1.505
					c-0.101,0.102-0.182,0.224-0.284,0.351c0.361,0.126,0.76,0.149,0.945,0.36c0.191,0.22,0.175,0.623,0.257,0.979
					c0.753-0.322,1.46-0.445,2.232-0.271c-0.041,0.136-0.077,0.232-0.098,0.332c-0.081,0.374-0.022,0.584,0.426,0.735
					c2.075,0.7,3.796-0.057,5.446-1.2c1.585-1.1,2.954-2.435,3.987-4.054c0.393-0.614,0.458-1.439,0.664-2.171
					c0.041-0.143,0.044-0.298,0.051-0.353c1.228-0.141,2.408-0.217,3.566-0.423c1.087-0.193,2.142-0.563,3.226-0.778
					c0.731-0.144,1.492-0.226,2.237-0.208c1.326,0.031,2.152,0.854,2.731,1.966c0.053,0.102,0.03,0.262,0.001,0.385
					c-0.37,1.562-1.437,2.428-2.885,2.954c-0.904,0.328-1.813,0.679-2.645,1.152c-0.468,0.266-0.791,0.793-1.157,1.223
					c-0.1,0.114-0.118,0.297-0.186,0.482c0.57-0.053,1.08-0.099,1.454-0.133c0.229,0.677,0.427,1.263,0.626,1.857
					c0.501-0.358,0.895-0.642,1.33-0.954c0.038,0.666,0.067,1.189,0.103,1.79c0.507-0.396,0.944-0.704,1.341-1.059
					c0.526-0.47,1.107-0.507,1.761-0.377c0.725,0.146,1.45,0.216,2.188-0.019c0.539-0.174,0.938-0.48,1.187-0.956
					c0.812-1.554,2.038-2.76,3.242-3.994c1.45-1.484,3.259-1.793,5.21-1.632c0.569,0.046,1.081,0.302,1.401,0.792
					c0.188,0.288,0.315,0.629,0.401,0.964c0.087,0.337-0.045,0.609-0.364,0.819c-0.696,0.459-1.227,1.344-1.279,2.114
					c0.332-0.26,0.606-0.515,0.917-0.707c0.256-0.155,0.554-0.253,0.841-0.346c0.242-0.077,0.32,0.021,0.288,0.289
					c-0.058,0.466-0.062,0.936-0.089,1.43c0.551-0.278,1.042-0.524,1.514-0.764c0.157,0.642,0.294,1.194,0.431,1.747
					c0.046,0.001,0.095,0.004,0.142,0.006c0.194-0.266,0.393-0.529,0.581-0.799c0.4-0.57,0.938-0.923,1.572-1.22
					c0.585-0.275,1.098-0.714,1.614-1.116c0.384-0.3,0.454-0.73,0.269-1.169c-0.137-0.319-0.27-0.688-0.518-0.906
					c-0.609-0.532-0.689-1.233-0.777-1.951c-0.276-2.233,0.104-4.405,0.6-6.572c0.438-1.917,0.867-3.838,0.868-5.824
					c0.001-3.697-1.223-6.959-3.494-9.843c-2.085-2.645-4.725-4.617-7.728-6.09c-2.741-1.344-5.61-2.335-8.638-2.833
					c-2.905-0.475-5.817-0.594-8.733-0.204c-2.937,0.392-5.777,1.184-8.54,2.244c-1.183,0.454-2.344,0.965-3.51,1.461
					c-2.943,1.252-5.865,2.556-8.832,3.754c-1.648,0.663-3.366,1.154-5.055,1.717c-0.125,0.042-0.264,0.039-0.437,0.064
					c0.073-0.357,0.139-0.674,0.212-1.031c-0.671,0.004-1.011,0.378-1.326,0.811c-0.14,0.191-0.295,0.474-0.483,0.509
					c-0.431,0.081-0.888,0.066-1.328,0.017c-0.076-0.008-0.198-0.391-0.151-0.559c0.101-0.353,0.008-0.442-0.33-0.436
					c-0.076,0.001-0.146,0.011-0.219,0.02c0.091-0.587,0.089-1.307-0.271-1.846c-0.402-0.604-0.581-0.09-0.66,0.485
					c-0.073,0.528-0.416,0.932-0.848,0.895c-0.433-0.038-0.784,0.287-0.784,0.723c0,0.437-0.298,0.792-0.664,0.792
					c-0.367,0-0.664,0.296-0.664,0.664c0,0.35,0.301,0.893,0.705,1.211c-1.582,2.256-2.916,4.662-4.167,7.133
					c-1.186,2.343-1.491,4.818-1.736,7.339c-0.071,0.729-0.063,1.465-0.105,2.197C35.309,78.86,35.452,79.2,35.895,79.487z"/>
			</g>
		</g>
		<g>
		</g>
		<g>
		</g>
		<g>
		</g>
		<g>
		</g>
		<g>
		</g>
		<g>
		</g>
		<g>
		</g>
		<g>
		</g>
		<g>
		</g>
		<g>
		</g>
		<g>
		</g>
		<g>
		</g>
		<g>
		</g>
		<g>
		</g>
		<g>
		</g>
	</g>
</g>
</svg>
