<?xml version="1.0" encoding="utf-8"?>
<!-- Generator: Adobe Illustrator 16.0.0, SVG Export Plug-In . SVG Version: 6.00 Build 0)  -->
<!DOCTYPE svg PUBLIC "-//W3C//DTD SVG 1.1//EN" "http://www.w3.org/Graphics/SVG/1.1/DTD/svg11.dtd">
<svg version="1.1" id="Ebene_1" xmlns="http://www.w3.org/2000/svg" xmlns:xlink="http://www.w3.org/1999/xlink" x="0px" y="0px"
	 width="141.73px" height="141.73px" viewBox="0 0 141.73 141.73" enable-background="new 0 0 141.73 141.73" xml:space="preserve">
<g>
	<circle fill="#FFFFFF" stroke="#FFFFFF" stroke-miterlimit="10" cx="70.865" cy="70.865" r="52"/>
	<g>
		<path fill="#010202" d="M91.92,50.28c0,0,0-6.338-2.4-6.146c-2.4,0.193,0,6.146,0,6.146s-2.688,2.98-3.649,5.861
			c-0.96,2.88-3.839,4.705-7.489,5.856c-3.648,1.153-14.884,7.971-14.785,20.261c0.19,8.45-1.423,12.867-22.644,12.003
			c-1.536,0-0.586,0.729,3.264,1.921c4.754,1.47,8.526,1.688,10.642,1.633c5.089-0.139,11.251-1.268,14.085-6.049
			c1.182-1.824,1.757-1.824,2.237-1.824c0.48,0,1.44,0.287,2.209,0.958c0.768,0.673,1.44,1.345,1.44,2.114
			c0,0.766-0.862,1.367-1.345,2.592c-0.316,0.802-0.576,2.162,1.92,2.232c2.498,0.072,15.52,0,15.52,0s1.824-0.41,1.919-1.656
			c0.097-1.248-1.343-1.92-2.977-1.826c-1.632,0.098-10.431,0.674-11.292-0.382c-0.863-1.058-1.154-4.032,0.383-5.187
			c1.537-1.15,5.781-5.943,5.279-11.425c-0.41-4.521,0.371-4.982,1.02-5.187c0.842-0.26,1.703-0.064,2.396,1.277
			c0.692,1.343,0.82,4.203,2.102,4.244c1.277,0.045,1.428-1.58,1.405-2.014c-0.021-0.434,0.152-3.597-3.704-6.846
			c-0.432-0.347-0.908-1.04,0.066-2.536c0.975-1.495,2.446-3.596,3.206-7.797c0.13-0.846,0.367-1.171,1.386-1.171
			c1.018,0,4.808,0.042,4.808,0.042s1.364-0.108,1.364-1.061C98.285,55.362,94.577,50.978,91.92,50.28z"/>
		<g>
		</g>
		<g>
		</g>
		<g>
		</g>
		<g>
		</g>
		<g>
		</g>
		<g>
		</g>
		<g>
		</g>
		<g>
		</g>
		<g>
		</g>
		<g>
		</g>
		<g>
		</g>
		<g>
		</g>
		<g>
		</g>
		<g>
		</g>
		<g>
		</g>
	</g>
</g>
</svg>
